<svg width="28" height="28" viewBox="0 0 28 28" fill="none" xmlns="http://www.w3.org/2000/svg">
<path d="M0 14C0 6.26801 6.26801 0 14 0V0C21.732 0 28 6.26801 28 14V14C28 21.732 21.732 28 14 28V28C6.26801 28 0 21.732 0 14V14Z" fill="white"/>
<path d="M26.5 14C26.5 20.9036 20.9036 26.5 14 26.5C7.09644 26.5 1.5 20.9036 1.5 14C1.5 7.09644 7.09644 1.5 14 1.5C20.9036 1.5 26.5 7.09644 26.5 14Z" fill="#E7836B" stroke="#E7836B" stroke-width="3"/>
<line x1="7.50113" y1="13.8478" x2="12.0217" y2="18.3684" stroke="white" stroke-width="2" stroke-linecap="round"/>
<line x1="12.1779" y1="18.377" x2="20.5075" y2="11.7134" stroke="white" stroke-width="2" stroke-linecap="round"/>
</svg>
