<svg width="28" height="28" viewBox="0 0 28 28" fill="none" xmlns="http://www.w3.org/2000/svg">
<path d="M0 14C0 6.26801 6.26801 0 14 0V0C21.732 0 28 6.26801 28 14V14C28 21.732 21.732 28 14 28V28C6.26801 28 0 21.732 0 14V14Z" fill="white"/>
<path d="M26.5 14C26.5 20.9036 20.9036 26.5 14 26.5C7.09644 26.5 1.5 20.9036 1.5 14C1.5 7.09644 7.09644 1.5 14 1.5C20.9036 1.5 26.5 7.09644 26.5 14Z" fill="#E7836B" stroke="#E7836B" stroke-width="3"/>
<path d="M19.7239 8.05297C19.5829 7.98234 19.4169 7.98234 19.276 8.05297L6.27632 14.5528C6.02939 14.6764 5.9294 14.9767 6.05297 15.2236C6.12331 15.3642 6.25567 15.4635 6.4103 15.4917L11.5696 16.4302L12.5081 21.5895C12.5465 21.801 12.7159 21.9643 12.9286 21.995C12.9521 21.9984 12.9759 22.0001 12.9996 22C13.1891 22.0001 13.3624 21.893 13.4471 21.7235L19.9469 8.72394C20.0706 8.47706 19.9707 8.17666 19.7239 8.05297ZM13.2231 19.9346L12.4911 15.9107C12.4533 15.7075 12.2943 15.5485 12.0911 15.5107L8.06529 14.7767L18.3815 9.61843L13.2231 19.9346Z" fill="white"/>
</svg>
